# xmcd CD database file generated by libcdaudio 0.99.1
# 
# Track frame offsets:
#       151
#       18456
#       33147
# 
# Disc length: 660 seconds
# 
# Revision: 1
# Processed by: cddbd v1.4PL0 Copyright (c) Steve Scherf et al.
# Submitted via: libcdaudio 0.99.1
# 
DISCID=17029203
DTITLE=johnny renegade - 
DYEAR=1900
DGENRE=
TTITLE0=Stand
TTITLE1=Hard Times
TTITLE2=Everybody
EXTD=
EXTT0=
EXTT1=
EXTT2=
PLAYORDER=
